<?xml version="1.0" standalone="no"?><!DOCTYPE svg PUBLIC "-//W3C//DTD SVG 1.1//EN" "http://www.w3.org/Graphics/SVG/1.1/DTD/svg11.dtd"><svg t="1716011310745" class="icon" viewBox="0 0 1024 1024" version="1.1" xmlns="http://www.w3.org/2000/svg" p-id="9124" xmlns:xlink="http://www.w3.org/1999/xlink" width="48" height="48"><path d="M64 127.62v768.76C64 931.452 92.53 960 127.62 960h768.76c35.072 0 63.62-28.53 63.62-63.62V127.62C960 92.548 931.47 64 896.38 64H127.62C92.548 64 64 92.53 64 127.62z m-64 0C0 57.137 57.249 0 127.62 0h768.76C966.863 0 1024 57.249 1024 127.62v768.76c0 70.483-57.249 127.62-127.62 127.62H127.62C57.137 1024 0 966.751 0 896.38V127.62z" p-id="9125" fill="#ffffff"></path></svg>