<?xml version="1.0" standalone="no"?><!DOCTYPE svg PUBLIC "-//W3C//DTD SVG 1.1//EN" "http://www.w3.org/Graphics/SVG/1.1/DTD/svg11.dtd"><svg t="1716625364869" class="icon" viewBox="0 0 1024 1024" version="1.1" xmlns="http://www.w3.org/2000/svg" p-id="1482" width="32" height="32" xmlns:xlink="http://www.w3.org/1999/xlink"><path d="M0 128a51.2 51.2 0 0 1 51.2-51.2h350.24a51.2 51.2 0 0 1 47.06 31.034l25.1 58.566h499.2a51.2 51.2 0 0 1 51.2 51.2v537.6a51.2 51.2 0 0 1-51.2 51.2H51.2A51.2 51.2 0 0 1 0 755.2V128z" fill="#FFA000" p-id="1483"></path><path d="M140.8 249.6h742.4q51.2 0 51.2 51.2v460.8q0 51.2-51.2 51.2H140.8q-51.2 0-51.2-51.2V300.8q0-51.2 51.2-51.2z" fill="#FFFFFF" p-id="1484"></path><path d="M51.2 332.8h921.6q51.2 0 51.2 51.2v512q0 51.2-51.2 51.2H51.2Q0 947.2 0 896V384q0-51.2 51.2-51.2z" fill="#FFCA28" p-id="1485"></path></svg>